<?xml version="1.0" standalone="no"?>
<!DOCTYPE svg PUBLIC "-//W3C//DTD SVG 20010904//EN"
 "http://www.w3.org/TR/2001/REC-SVG-20010904/DTD/svg10.dtd">
<svg version="1.0" xmlns="http://www.w3.org/2000/svg"
 width="300.000000pt" height="300.000000pt" viewBox="0 0 300.000000 300.000000"
 preserveAspectRatio="xMidYMid meet">
<metadata>
Created by potrace 1.11, written by Peter Selinger 2001-2013
</metadata>
<g transform="translate(0.000000,300.000000) scale(0.100000,-0.100000)"
fill="#000000" stroke="none">
<path d="M1365 2874 c-137 -19 -193 -30 -280 -56 -414 -123 -746 -443 -894
-861 -56 -160 -75 -272 -75 -462 -1 -179 5 -208 44 -220 44 -14 49 6 43 163
-9 270 55 532 180 730 24 37 31 42 65 42 28 0 56 12 107 45 177 114 399 168
597 146 117 -14 189 -32 201 -53 8 -12 -44 -121 -226 -474 -143 -279 -241
-458 -248 -456 -23 6 -59 -8 -59 -23 0 -9 10 -15 26 -15 20 0 25 -4 20 -16 -3
-9 -6 -18 -6 -20 0 -2 -9 -4 -21 -4 -12 0 -36 -15 -55 -34 -37 -37 -45 -82
-22 -131 22 -49 96 -69 153 -43 56 26 73 115 31 165 -17 20 -22 34 -16 44 8
11 15 8 41 -17 69 -69 42 -186 -51 -227 -73 -32 -66 -72 7 -42 72 30 122 102
123 174 0 43 -34 115 -66 140 -13 10 -24 21 -24 24 0 8 450 881 458 888 4 4
27 -2 51 -12 45 -20 46 -22 26 -84 -5 -17 2 -24 37 -41 66 -33 160 -108 230
-183 99 -108 171 -242 215 -403 27 -96 24 -336 -5 -443 -29 -105 -99 -245
-162 -323 -27 -34 -50 -65 -50 -70 0 -4 13 -14 29 -23 22 -13 33 -32 50 -88
26 -84 37 -93 144 -115 44 -9 82 -18 87 -21 8 -5 40 -90 40 -105 0 -11 -125
-64 -218 -94 -125 -39 -240 -56 -387 -56 -268 0 -460 55 -732 211 -50 28 -78
19 -78 -26 0 -24 11 -34 88 -81 397 -239 912 -256 1340 -43 143 71 238 140
358 259 194 194 312 410 371 683 31 144 31 408 0 549 -123 563 -525 966 -1075
1079 -97 20 -339 33 -412 23z m-2 -270 c-3 -8 -12 -14 -19 -14 -20 0 -30 30
-13 40 17 11 40 -7 32 -26z m691 -116 c14 -24 -3 -52 -34 -56 -41 -6 -60 46
-26 71 17 11 48 4 60 -15z m441 -320 c73 -33 24 -149 -53 -122 -49 17 -56 99
-10 122 30 14 33 14 63 0z m-371 -327 c23 -25 13 -59 -19 -67 -44 -11 -74 29
-49 64 19 27 45 28 68 3z m512 -242 c3 -6 0 -17 -7 -25 -18 -17 -44 -2 -36 20
7 18 33 21 43 5z m-81 -439 c15 -17 16 -24 7 -46 -15 -31 -57 -30 -78 1 -12
18 -11 24 2 43 19 27 45 28 69 2z m-473 -212 c-15 -15 -26 -4 -18 18 5 13 9
15 18 6 9 -9 9 -15 0 -24z m83 -143 c0 -27 -3 -30 -30 -30 -21 0 -31 5 -33 18
-6 33 6 49 35 45 24 -3 28 -8 28 -33z"/>
<path d="M1399 2008 c-7 -13 -27 -50 -45 -83 -17 -33 -89 -167 -157 -298
l-126 -238 27 -50 c62 -121 7 -286 -116 -342 -20 -9 22 -26 305 -123 180 -62
338 -115 350 -119 18 -4 29 4 58 42 54 75 84 183 99 360 13 157 15 160 69 220
27 29 29 37 25 85 -6 74 -88 242 -165 339 -65 81 -141 145 -234 198 -66 37
-75 38 -90 9z m167 -149 c33 -36 -8 -65 -57 -39 -21 12 -26 56 -6 63 19 6 44
-3 63 -24z m-108 -82 c2 -10 -3 -17 -11 -17 -18 0 -39 24 -30 34 12 12 38 2
41 -17z m257 -348 c20 -37 16 -78 -8 -93 -15 -9 -22 -7 -38 13 -18 23 -27 90
-12 104 16 16 44 5 58 -24z m-301 -122 c8 -12 7 -20 -1 -28 -16 -16 -33 -2
-33 27 0 28 17 28 34 1z"/>
<path d="M713 1342 c-7 -4 -19 -24 -27 -44 -13 -31 -14 -38 -1 -48 12 -10 18
-4 37 34 22 45 17 74 -9 58z"/>
<path d="M676 1211 c-9 -14 15 -71 30 -71 15 0 18 21 8 58 -6 22 -28 30 -38
13z"/>
<path d="M188 1139 c-10 -5 -18 -18 -18 -28 0 -27 66 -186 112 -269 76 -138
242 -342 278 -342 19 0 50 30 50 48 0 7 -31 46 -69 87 -111 120 -196 256 -262
422 -37 94 -51 106 -91 82z"/>
<path d="M740 1105 c-9 -11 -6 -17 14 -30 32 -21 65 -13 45 11 -22 27 -46 35
-59 19z"/>
<path d="M1044 759 c3 -17 6 -35 6 -39 0 -5 34 -20 75 -33 l75 -26 0 32 c0 45
-7 51 -79 75 -83 28 -85 28 -77 -9z"/>
<path d="M1244 689 c3 -17 6 -35 6 -39 0 -5 37 -21 83 -36 45 -15 143 -49 217
-75 74 -27 136 -49 137 -49 2 0 2 19 1 43 l-3 42 -210 72 c-115 39 -216 72
-224 72 -10 1 -12 -7 -7 -30z"/>
<path d="M1751 504 c0 -11 3 -14 6 -6 3 7 2 16 -1 19 -3 4 -6 -2 -5 -13z"/>
<path d="M1738 473 c7 -3 16 -2 19 1 4 3 -2 6 -13 5 -11 0 -14 -3 -6 -6z"/>
</g>
</svg>
